/* XPM */
static char *result[] = {
/* columns rows colors chars-per-pixel */
"50 50 120 2 ",
"   c #000000",
".  c #060609",
"X  c #080708",
"o  c #0A0A0C",
"O  c #070913",
"+  c #0D0D14",
"@  c #0F0F19",
"#  c #111114",
"$  c #14141A",
"%  c #19191D",
"&  c #151522",
"*  c #1B1B22",
"=  c #14162B",
"-  c #17182E",
";  c #1C1C2B",
":  c #1A1B34",
">  c #1C1D38",
",  c #1D2529",
"<  c #212125",
"1  c #24242B",
"2  c #20282C",
"3  c #2B2B2D",
"4  c #242433",
"5  c #262F33",
"6  c #2B2B34",
"7  c #24243C",
"8  c #2D2D3A",
"9  c #273136",
"0  c #2D363B",
"q  c #313133",
"w  c #33333D",
"e  c #3B3638",
"r  c #3B3B3C",
"t  c #252642",
"y  c #2C2D42",
"u  c #2E2E4C",
"i  c #2F3040",
"p  c #343442",
"a  c #3B3540",
"s  c #3B3B44",
"d  c #33344A",
"f  c #3D3D49",
"g  c #2E2E52",
"h  c #292A59",
"j  c #333454",
"k  c #373850",
"l  c #3A3A55",
"z  c #34365A",
"x  c #3A3A5A",
"c  c #353660",
"v  c #3D3E61",
"b  c #363768",
"n  c #3D3F6E",
"m  c #353670",
"M  c #4D3640",
"N  c #503F48",
"B  c #3F4062",
"V  c #434345",
"C  c #43434D",
"Z  c #4B444D",
"A  c #474848",
"S  c #49494C",
"D  c #5C444B",
"F  c #464753",
"G  c #4B4B54",
"H  c #42425C",
"J  c #4F4F58",
"K  c #534E54",
"L  c #594D55",
"P  c #4F5256",
"I  c #545454",
"U  c #53535B",
"Y  c #595A5F",
"T  c #654349",
"R  c #744348",
"E  c #7E454A",
"W  c #73484D",
"Q  c #7C4B4F",
"!  c #654C52",
"~  c #754B50",
"^  c #6C5459",
"/  c #785256",
"(  c #474861",
")  c #42426C",
"_  c #47486B",
"`  c #535461",
"'  c #5C5C63",
"]  c #414379",
"[  c #4B4C78",
"{  c #545572",
"}  c #5E5E7B",
"|  c #635D63",
" . c #765E61",
".. c #616166",
"X. c #66666B",
"o. c #6B656A",
"O. c #6A696E",
"+. c #746165",
"@. c #6D6D71",
"#. c #62637E",
"$. c #727275",
"%. c #757579",
"&. c #7C7C7E",
"*. c #863D42",
"=. c #883E42",
"-. c #914144",
";. c #303D85",
":. c #3D4DA4",
">. c #4C4E8B",
",. c #4B5695",
"<. c #4453A7",
"1. c #758187",
"2. c #818183",
"3. c #888586",
"4. c #8C8C8D",
"5. c #939393",
"6. c #A6999D",
"7. c #AAA5A7",
"8. c #C4BCBE",
"9. c #CFC2C7",
/* pixels */
"                                                                                                    ",
"                                                                                                    ",
"                                                                                                    ",
"                                                                                                    ",
"                                                                                                    ",
"                                                              q 1 @ @ .                             ",
"                                                        . $ V X.U 6 ; .                             ",
"                                                      . 6 U @.@.f # + X                             ",
"                                                    . < Y O.' r o                                   ",
"                                  X 6 * # .         * S C 3 1 o                                     ",
"                                X 1 J G F w 3 1 X . 6 C *                                           ",
"                              . < C Y o.O.O...U < . 4 6 o                                           ",
"        o * 1 r A A A V 6 % & 5 G ' O.@.$.1.$.o.J * 6 6 o                                           ",
"    o $ * l _ { #.#.#.} ( p d f P O.@.@.$.&.$.@.X.d 8 6 o                                           ",
"  . & 4 8 H v > : : : : - ; j u C X.@.@.@.@.@.@.X.F p 6 o     * r A V q 3 < % # + X                 ",
"  . @ @ & 6 *             @ N t a ' O.@.@.O.@.O.' a w 8 o   # I %.@.U G C H ) j 8 3 1 +             ",
"                          o q : 6 f Y X.X.X.X.' J 8 0 8 o   w U G ; # @ # : h t 1 w J r #           ",
"                            . * 4 7 C U Y ' U U G s a 6 o . w s 4 .   + $ .       # 8 C <           ",
"                            . @ & 6 s F J U ' | U U C w $ . 1 4 ; ; 1 C U f 1 o     $ 4 +           ",
"                                . * 8 f G ' @.$.&.$.' F 6 # 1 ; 4 G ' O.' ..U %     @ ; @           ",
"                    X * r r 3 @ . 4 4 p U O.@.$.2.$.$...F 6 ; 4 s G J A 1 a U *     + ; $           ",
"                  X 3 ' %.O.U 8 , f p C U @.@.@.@.$.$.@...d : 8 s 1 1 +   w U 1 X     $ #           ",
"                X 6 ' ' G 4 H d w C C G U X.@.@.@.@.@.X. .Z 6 8 4 o       G G 6 #                   ",
"              X 1 G P f 3 # k y 4 8 6 p G U X.o.o.@.@.^ -.D p 6 # .       q 8 7 #                   ",
"            X * r 1 1 *     o 8 ; 7 6 4 f U ' E  .X...E *.N 8 6 * X         # 6 1 .                 ",
"            $ w *         o 6 s 4 ; 4 ; 8 G L *./ ~ ! =.R a i d : # .       + 4 w $                 ",
"        . * 8 6           + S I a ; 4 ; 4 f G U L =.W -.Q K u g z g * .       * 8 * X               ",
"        % f 8 %             # G F 4 1 & ; w C G K L D T +.3.C 1 4 B d * .     1 d 8 @               ",
"        $ f 1               . 4 f 8 # . 1 p a C '  .M 1 J %.f o   a 8 i * .   1 l y * o             ",
"        @ 6 1               . & p 6 , o s p p w @.4.C o * ' J $     $ y y #     - d C *             ",
"        o * %                 o y 6 . X w 4 0 o s &.C 1 o f %.r .   @ g d +     & j H *             ",
"        o + .                 o 8 6     . ; w % + I C &.3 A O.$.K +   g x * .   & j H *             ",
"                              . 7 8 o   . 4 j p + < w 2.<   V 4.8.e   f [ u +   & j l %             ",
"                                o j ; % X : b y $ X C 6.I X   I 5.3   V >.c $ X $ y d $             ",
"                                O m y F o o n v w # o.9.8.A X X I <     : x d +   : d $             ",
"                                . : u 8 X X ` >.y # # X.6.7.3           @ u d #   = 8 #             ",
"                                  = z 0 X X f ] l C # o ..6.3             7 d $   . + o             ",
"                                . = j 8 .   X > x f o   . X             . 6 f %                     ",
"                                O :.:.j +     . 4 8 o                       1 8 * .                 ",
"                                O ;.<.:.y X     . 4 +                       $ 7 w #                 ",
"                                  + F ,.` %     X 6 q < .                   @ ; 8 #                 ",
"                                    # P U 0 .     9 Y 1.3                     * 6 #                 ",
"                                    . 2 , o     X 9 P Y I $                     .                   ",
"                                        .         X , 9 V #                     .                   ",
"                                                    .   X                                           ",
"                                                                                                    ",
"                                                                                                    ",
"                                                                                                    ",
"                                                                                                    ",
"                                                                                                    "
};
