/* XPM */
static char *result[] = {
/* columns rows colors chars-per-pixel */
"50 50 116 2 ",
"   c #000000",
".  c #05070A",
"X  c #05090B",
"o  c #080A0F",
"O  c #080B11",
"+  c #0D0F18",
"@  c #0B1515",
"#  c #0B171B",
"$  c #0F1723",
"%  c #0E1C21",
"&  c #141425",
"*  c #111926",
"=  c #171629",
"-  c #18172A",
";  c #131D2C",
":  c #191A2C",
">  c #1B1F32",
",  c #132529",
"<  c #1E212F",
"1  c #182C2B",
"2  c #1D2233",
"3  c #162C34",
"4  c #1D3533",
"5  c #202331",
"6  c #203937",
"7  c #223C39",
"8  c #2D383E",
"9  c #2D4437",
"0  c #314837",
"q  c #1E2D44",
"w  c #1C3843",
"e  c #252B45",
"r  c #252E49",
"t  c #203143",
"y  c #2C3B44",
"u  c #24324D",
"i  c #2A344A",
"p  c #243B4D",
"a  c #2E3A4D",
"s  c #303D40",
"d  c #253653",
"f  c #273956",
"g  c #273B59",
"h  c #283E5B",
"j  c #2A424E",
"k  c #344445",
"l  c #364949",
"z  c #264455",
"x  c #274658",
"c  c #28415D",
"v  c #274D5C",
"b  c #284B5C",
"n  c #334150",
"m  c #3A4D56",
"M  c #2C5152",
"N  c #315957",
"B  c #294760",
"V  c #2B4B63",
"C  c #2C5367",
"Z  c #2D5569",
"A  c #2E5C6D",
"S  c #305F6E",
"D  c #31606E",
"F  c #3F726F",
"G  c #336472",
"H  c #376874",
"J  c #386872",
"K  c #396D78",
"L  c #3E747C",
"P  c #455E5F",
"I  c #496459",
"U  c #47686A",
"Y  c #4C706F",
"T  c #557866",
"R  c #507069",
"E  c #427376",
"W  c #4C7270",
"Q  c #437875",
"!  c #447278",
"~  c #467B7D",
"^  c #4A7D7C",
"/  c #47807E",
"(  c #4C817C",
")  c #52867C",
"_  c #54887D",
"`  c #608975",
"'  c #659275",
"]  c #65927C",
"[  c #68967A",
"{  c #6B9B7D",
"}  c #437C82",
"|  c #468185",
" . c #488587",
".. c #498688",
"X. c #4B898A",
"o. c #5D9381",
"O. c #50918F",
"+. c #5B998E",
"@. c #539693",
"#. c #559894",
"$. c #599B93",
"%. c #6D9E80",
"&. c #609F90",
"*. c #72A684",
"=. c #71AA8A",
"-. c #78AF89",
";. c #76B18D",
":. c #7BB48C",
">. c #7EBA8F",
",. c #63A492",
"<. c #6DAC91",
"1. c #71AF91",
"2. c #73B191",
"3. c #7BB790",
"4. c #7CB991",
"5. c #81BD90",
/* pixels */
"                                                                                                    ",
"                                                                                                    ",
"                                                                                                    ",
"                                                                                                    ",
"                                                                                                    ",
"                                                                                                    ",
"                                                                                                    ",
"                                                                                                    ",
"                                                                                                    ",
"                                    @ 6 7 0 0 0 0 0 0 0 9 7 1                                       ",
"                                    4 #.,.5.5.5.5.5.4.5.2.$.E                                       ",
"                              @ 4 4 N @.,.5.5.5.5.5.5.5.2.$./ 7 4 1                                 ",
"                          @ 4 N #.@.$.,.<.3.1.1.1.1.1.1.<.$.@.@.#./ 4 1 .                           ",
"                          9 #.@.@.@.,.4.5.1.#.#.#.#.#.@.@.#.#.@.#.@.#.Q .                           ",
"                      o % M @.$.,.,.<.5.4.<.@.@... . . . . . . . .X.#./ , @                         ",
"                    o w A L @.,.:.2.2.2.,.O. .} A A Z Z Z Z Z A A H ..} S v %                       ",
"                    3 A A L @.,.1.#.$.#.$.| A A A Z g h g g c A A A S S A A v .                     ",
"                    3 A A ~ ,.1.<.#.O. .X.} A A A C u u d g h C V Z A A A A v .                     ",
"                o # w H F o.>.3.,.#.| A S Z b b b p : - 2 g g g g B V Z A A C % @                   ",
"                3 A Z _ 4.3.5.1.#.#. .A S x - - - - - & > g g g g g g B A A A A v X                 ",
"                3 A A _ 5.5.5.<.#.#.| A Z p - 5 k 8 k 8 a d d d d g g h A A A A v X                 ",
"                3 A A _ 5.5.5.<.$.#.| A x ; & k -.:.:.:.' r e r r g g B A A A A v X                 ",
"                3 A A ^ =.;.5.1.@.#.| A z 5 y I 5.:.{ *.%.m a e r f g h Z Z A A v X                 ",
"                3 A A S D _ 5.<.@.#.| A z s ' [ { T 5 l ;.:.%.m n r g g g c A A v X                 ",
"                3 A A A A ( 5.<.#.#.| A z - 5 2 5 < & y &.5.>.>.[ i g g g c A A v X                 ",
"                3 A A A A ) 5.2.$.#.| A b > & - = : 2 j $.5.>.*.` i g g g c A A v X                 ",
"                3 A V B Z ^ -.;.<.#. .G D z 2 2 < t C J +.*.` a i r g g g c A A v X                 ",
"                ; h h g g V G _ <.@.@.#.} A Z Z C C A K } a i e e r f g g c A A v X                 ",
"                ; g g g g B Z ^ <.#.@.#. .G G G G G G K ^ i e e e r f g g c Z Z v X                 ",
"                ; h g g g h g W 1.#.#.@.@.O.O.O.O.O.O.@.} e e e e r g g g g c h u X                 ",
"                * u d g g g g Y 2.$.$.$.#.#.#.#.#.#.$.#.! i e e e r g g g g f d q .                 ",
"                . X ; g g g d U ;.3.3.:.1.$.#.$.$.&.=.` a e e e e u g g g g u X .                   ",
"                    ; g g d e i R 5.5.5.5.3.3.4.4.] a a r e e e r f g g g g q .                     ",
"                    * f g d e e P -.-.-.-.-.-.:.:.` e e e e e e r f g g g g w .                     ",
"                      ; d d e e i n n a n n n a n a e e e e e e e r f f d r O                       ",
"                      . . ; f u e e e e e e e e e e e e e e e r e e r e O o                         ",
"                          $ d u e e e e e e e e e e e r e e e e e e e >                             ",
"                          . O * e e e e e e e e e r e r e e e e e 2 O .                             ",
"                                O . * r e e e e e e e r e e 5 O o .                                 ",
"                                    + 5 e e e e e e e 5 e e >                                       ",
"                                    . o o o o o o o o o O O .                                       ",
"                                                                                                    ",
"                                                                                                    ",
"                                                                                                    ",
"                                                                                                    ",
"                                                                                                    ",
"                                                                                                    ",
"                                                                                                    ",
"                                                                                                    ",
"                                                                                                    "
};
