/* XPM */
static char *result[] = {
/* columns rows colors chars-per-pixel */
"50 50 205 2 ",
"   c #000000",
".  c #0E0403",
"X  c #04050C",
"o  c #080509",
"O  c #0B0B0B",
"+  c #120503",
"@  c #1B0705",
"#  c #1D0806",
"$  c #15090E",
"%  c #070A13",
"&  c #050914",
"*  c #0A0C1B",
"=  c #1A0E19",
"-  c #141414",
";  c #1B1B1B",
":  c #220907",
">  c #240A09",
",  c #2B0C0B",
"<  c #330E0C",
"1  c #3C0F0C",
"2  c #35100E",
"3  c #3E110E",
"4  c #240E13",
"5  c #281417",
"6  c #341513",
"7  c #3E161B",
"8  c #23201F",
"9  c #0C0F22",
"0  c #0C1229",
"q  c #1E1822",
"w  c #11152C",
"e  c #121631",
"r  c #131836",
"t  c #131A3A",
"y  c #1F1E3E",
"u  c #271E3A",
"i  c #232323",
"p  c #29262A",
"a  c #2C2C2C",
"s  c #2C3035",
"d  c #253238",
"f  c #2B3238",
"g  c #343434",
"h  c #353538",
"j  c #3A3438",
"k  c #3B3B3B",
"l  c #44120F",
"z  c #4C140F",
"x  c #51150F",
"c  c #451411",
"v  c #4C1511",
"b  c #43181D",
"n  c #571814",
"m  c #5D1914",
"M  c #641B16",
"N  c #6A1D17",
"B  c #6D1E18",
"V  c #751F18",
"C  c #6F241E",
"Z  c #7D221C",
"A  c #521E26",
"S  c #482A2A",
"D  c #58222D",
"F  c #5A2533",
"G  c #463437",
"H  c #493538",
"J  c #5A3535",
"K  c #563638",
"L  c #6E2626",
"P  c #7B2825",
"I  c #66302C",
"U  c #653636",
"Y  c #763736",
"T  c #723836",
"R  c #161D42",
"E  c #19224C",
"W  c #1C2552",
"Q  c #1F2758",
"!  c #31264B",
"~  c #222C5D",
"^  c #372B54",
"/  c #293A54",
"(  c #232D64",
")  c #242F68",
"_  c #2A326C",
"`  c #34386C",
"'  c #273374",
"]  c #293475",
"[  c #2A3679",
"{  c #2C397F",
"}  c #50334B",
"|  c #7D3C5F",
" . c #443764",
".. c #5B3B6D",
"X. c #2E406F",
"o. c #334170",
"O. c #444544",
"+. c #4B4B4B",
"@. c #4F5051",
"#. c #545454",
"$. c #5B5B5B",
"%. c #65605F",
"&. c #7A416E",
"*. c #7B4476",
"=. c #636363",
"-. c #6D6362",
";. c #6C6C6C",
":. c #737372",
">. c #797877",
",. c #7B7B7B",
"<. c #84231C",
"1. c #8C261E",
"2. c #93271E",
"3. c #96281D",
"4. c #852825",
"5. c #942921",
"6. c #9B2A22",
"7. c #9C2D28",
"8. c #8E3B36",
"9. c #823A38",
"0. c #983A36",
"q. c #A12C23",
"w. c #AB2F26",
"e. c #A2322D",
"r. c #B43027",
"t. c #B33129",
"y. c #BE3429",
"u. c #A53A33",
"i. c #B63E36",
"p. c #BD3E36",
"a. c #C3352B",
"s. c #C9372C",
"d. c #C6382E",
"f. c #CD382D",
"g. c #D33A2E",
"h. c #DA3B2F",
"j. c #C33E35",
"k. c #CF3B31",
"l. c #D03B30",
"z. c #DD3D31",
"x. c #E33E32",
"c. c #CC4035",
"v. c #DD4137",
"b. c #EB4135",
"n. c #E34238",
"m. c #EA453D",
"M. c #F54336",
"N. c #F94437",
"B. c #FC4538",
"V. c #9F3947",
"C. c #A13D4F",
"Z. c #96456A",
"A. c #904874",
"S. c #B44966",
"D. c #867776",
"F. c #D7454A",
"G. c #D14752",
"H. c #E34543",
"J. c #EA4541",
"K. c #2A3781",
"L. c #2D3B84",
"P. c #303A81",
"I. c #323E8B",
"U. c #334294",
"Y. c #3A4290",
"T. c #34459A",
"R. c #3647A0",
"E. c #384AA6",
"W. c #3C4DAD",
"Q. c #3C4FB0",
"!. c #3E51B6",
"~. c #3E52B8",
"^. c #524791",
"/. c #584C9D",
"(. c #6B4D94",
"). c #624F9E",
"_. c #724D90",
"`. c #5650A7",
"'. c #5651A8",
"]. c #4152B7",
"[. c #4852B4",
"{. c #4052B8",
"}. c #6250A0",
"|. c #7F8181",
" X c #848484",
".X c #878A8A",
"XX c #8D8D8D",
"oX c #909090",
"OX c #939393",
"+X c #9A9A9A",
"@X c #9FA0A0",
"#X c #A2A2A2",
"$X c #ADADAD",
"%X c #AEB0B0",
"&X c #B3B3B3",
"*X c #B7B8B8",
"=X c #BABABA",
"-X c #C2C2C3",
";X c #CBCBCB",
":X c #D3D3D3",
">X c #DFDFDF",
",X c #E2E2E2",
"<X c #EBEBEB",
"1X c gray94",
"2X c #FDFDFD",
/* pixels */
"                                                                                                    ",
"                                                                                                    ",
"                                      < N   + <.5.2.,                                               ",
"                                  l 1.t.r.; -.L B N <.1.3                                           ",
"                                v y.N.N.h.P =.;.;.;.T s.y.c                                         ",
"                                1.N.M.N.B.f.5 =X:X>XXXT a.<.                                        ",
"                              v a.N.d.Z Z P :.:X,X2X,X+.Z a.v                                       ",
"                              q.N.N.1.; #.:.>X2X2X1XOXU r.N.6.                                      ",
"                              q.N.N.1.O.:X<X2X1X<XXXU y.N.N.3.                    O O               ",
"                              q.N.M.r.U +X<X>X.X>.I d.M.M.N.6.                    O ;               ",
"                              q.N.M.M.y.I  X>.D m f.M.M.M.f.M                                       ",
"                              B g.M.M.M.d.n M x.M.M.M.M.M.<.8 k                                     ",
"              ; h               1.N.M.M.M.x.N.M.M.N.x.N.B.<.%.%X                                    ",
"              $.&Xo         g ; 1.N.M.M.N.B.N.M.M.N.B.f.t.m O.+Xk                                   ",
"            ; :..X      k O.+Xk 1.N.M.M.M.x.M.M.M.x.f.A e *   k +XO.k o     a ;                     ",
"            ;.=XO.a o O.$X*Xk   N z.M.M.M.M.M.N.N.g.S { T.E     g &X%XO.o    X+.                    ",
"          ; ,.;X-X@X#.;Xg O       Z N.N.N.M.b.f.y.6 [ R.! $ + , , 6 i @X+.O a k -                   ",
"          ;.>.O O O.,X-X;       + Z f.f.f.f.t.: .   ( ! 5.5.N x.b.a.< 8 -X=.XX;X$.                  ",
"          O 8 -   a &X+.a p o + 5.Z . $ = . + : : : 4 4.x.b.b.M.M.M.s.5 %X<X$.- O                   ",
"            $.oX; O +.*X;X=Xg 1.n.Z @ u ` : 2 d.x.z.x.m 1.N.M.M.M.M.a.# g &X+.                      ",
"            O $.OX+.=Xg ; ; i 7.9.Y k.0.} g.c.v.v.v.M.n B x.N.M.h.y.l 5 +XO.o                       ",
"              O @.:X:X-   o oXD.j j 0.u.K c.K K K K i.M > <.x.w.5 7 t.d.S ; - O                     ",
"                o #.;X;     8 0.T Y 8.j f J p.c.c.p.Y e.s.V > u T.L.b s.2 OX;X#.                    ",
"                  j ;X;       q.9.g j d d f H H G 6 e.b.4.+ t R.~.U.4 a., i a - O O                 ",
"                  k ;X-       7.Y d f d d d f s s O t.M.C   y !.].I.5 y.<       ;.>.                ",
"                  k -Xi O O    . .Y 9.d d G i.p.i.H u.4.D.;.% W ].].P.b q.<      XOX                ",
"          o o   k #X$.$X=X&Xg ' o.H H d d h J c l e.M D.>.,.:.w ].R.u e.x.3     i i                 ",
"        :.=X;.  +.<X$X#.+.O.- ' X.T 9.d d G 0.a p d.v a 8 8 a % R E.I._.F.1                         ",
"        a %X>X&XOX>.:X-       d / 8.v.i.i.c.b.p.i.n.a.3     O.,.w E.{.].(.q                         ",
"          a $.#.:.OX=.#X#Xi   ~ / 8.t.1.M.N.h.M n &.G.s.l @.oXk w W.].].Q.w :.+.                    ",
"            O.#XXX+.- #.=.OXs ] X.8.1.v M.h.D ) ' Z.H.N.B a k   X Q W.Q.Q.w k a                     ",
"          #..X=.:.+X XO   @.o.T.X.8.C.^ m z % R.[.G.M.M.a.z   9 ) [ Q.W.Q &                         ",
"          k k   +.>X,. X-   L.] U k.G.A.E 9 _ Z.S.J.B.N.N.<.9 L.{.{.{.E.9                           ",
"                i #.a ,XOX; K.R 1.N.x.G.K.0 /.H.N.x.B.x.M.<.R T.) Q.{.E.9                           ",
"                  ; ,..X,Xh K.R <.N.M.H.*.( ^ z.N.N.N.N.M.a.F r w E.].W.9                           ",
"                  ; ;.; ;.|.` * 5.N.M.B.F.| , h.N.B.x.M.M.B.6.* _ E.( ~ &                           ",
"                        O ;XO.  5.x.B.x.M.s.> B 4.x.M.M.M.a.z * ( W                                 ",
"                        O >.,.p 1.B.f.r.N.s.+     N h.B.B.<.* r                                     ",
"                            :.g x 5.F } C.P y X   r L 2.2.D ] P.                                    ",
"                                9 R ' {.T.W ( X o I._ R R ] {.U.t                                   ",
"                                ) ].!.!.].U.X     Q E.!.!.!.!.].I.X                                 ",
"                                ) {.!.!.[...o       ..'.!.].!.{.I.X                                 ",
"                                ) ~.!.!._.j..       Z A.`.!.!.{.I.                                  ",
"                                ) ~.!.~._.j.+         7.A.!.!.].T.w                                 ",
"                                ) {.!.!.).V..         Z *.{.].!.!.U.X                               ",
"                                ( ~.!.!.].Y.X           ( {.!.!.~.T.X                               ",
"                              & ] ~.!.~.[.[ X           ^ /.}./.).^.5                               ",
"                          # ,  ./.`./.T.] X             4.J.J.m.m.m.f.:                             ",
"                        . t.x.n.H.J.4.& X               B h.l.g.g.g.y.@                             ",
"                        . a.N.M.M.N.2.                  + # # @ @ : @                               "
};
