/* XPM */
static char *result[] = {
/* columns rows colors chars-per-pixel */
"50 50 256 2 ",
"   c black",
".  c #010101",
"X  c #020202",
"o  c gray1",
"O  c #040404",
"+  c gray2",
"@  c #060606",
"#  c #070707",
"$  c gray3",
"%  c #090909",
"&  c gray4",
"*  c #0B0B0B",
"=  c #0C0C0C",
"-  c gray5",
";  c #0E0E0E",
":  c gray6",
">  c #101010",
",  c #111111",
"<  c gray7",
"1  c #131313",
"2  c gray8",
"3  c #151515",
"4  c #161616",
"5  c gray9",
"6  c #181818",
"7  c #191919",
"8  c gray10",
"9  c #1B1B1B",
"0  c gray11",
"q  c #1D1D1D",
"w  c #1E1E1E",
"e  c gray12",
"r  c #202020",
"t  c gray13",
"y  c #222222",
"u  c #232323",
"i  c gray14",
"p  c #252525",
"a  c gray15",
"s  c #272727",
"d  c #282828",
"f  c gray16",
"g  c #2A2A2A",
"h  c gray17",
"j  c #2C2C2C",
"k  c #2D2D2D",
"l  c gray18",
"z  c #2F2F2F",
"x  c gray19",
"c  c #313131",
"v  c #323232",
"b  c gray20",
"n  c #343434",
"m  c #353535",
"M  c gray21",
"N  c #373737",
"B  c gray22",
"V  c #393939",
"C  c #3A3A3A",
"Z  c gray23",
"A  c #3C3C3C",
"S  c gray24",
"D  c #3E3E3E",
"F  c #3F3F3F",
"G  c gray25",
"H  c #414141",
"J  c gray26",
"K  c #434343",
"L  c #444444",
"P  c gray27",
"I  c #464646",
"U  c gray28",
"Y  c #484848",
"T  c #494949",
"R  c gray29",
"E  c #4B4B4B",
"W  c #4C4C4C",
"Q  c gray30",
"!  c #4E4E4E",
"~  c gray31",
"^  c #505050",
"/  c #515151",
"(  c gray32",
")  c #535353",
"_  c gray33",
"`  c #555555",
"'  c #565656",
"]  c gray34",
"[  c #585858",
"{  c gray35",
"}  c #5A5A5A",
"|  c #5B5B5B",
" . c gray36",
".. c #5D5D5D",
"X. c gray37",
"o. c #5F5F5F",
"O. c #606060",
"+. c gray38",
"@. c #626262",
"#. c gray39",
"$. c #646464",
"%. c #656565",
"&. c gray40",
"*. c #676767",
"=. c #686868",
"-. c DimGray",
";. c #6A6A6A",
":. c gray42",
">. c #6C6C6C",
",. c #6D6D6D",
"<. c gray43",
"1. c #6F6F6F",
"2. c gray44",
"3. c #717171",
"4. c #727272",
"5. c gray45",
"6. c #747474",
"7. c gray46",
"8. c #767676",
"9. c #777777",
"0. c gray47",
"q. c #797979",
"w. c gray48",
"e. c #7B7B7B",
"r. c #7C7C7C",
"t. c gray49",
"y. c #7E7E7E",
"u. c gray50",
"i. c #808080",
"p. c #818181",
"a. c gray51",
"s. c #838383",
"d. c #848484",
"f. c gray52",
"g. c #868686",
"h. c gray53",
"j. c #888888",
"k. c #898989",
"l. c gray54",
"z. c #8B8B8B",
"x. c gray55",
"c. c #8D8D8D",
"v. c #8E8E8E",
"b. c gray56",
"n. c #909090",
"m. c gray57",
"M. c #929292",
"N. c #939393",
"B. c gray58",
"V. c #959595",
"C. c gray59",
"Z. c #979797",
"A. c #989898",
"S. c gray60",
"D. c #9A9A9A",
"F. c #9B9B9B",
"G. c gray61",
"H. c #9D9D9D",
"J. c gray62",
"K. c #9F9F9F",
"L. c #A0A0A0",
"P. c gray63",
"I. c #A2A2A2",
"U. c gray64",
"Y. c #A4A4A4",
"T. c #A5A5A5",
"R. c gray65",
"E. c #A7A7A7",
"W. c gray66",
"Q. c #A9A9A9",
"!. c #AAAAAA",
"~. c gray67",
"^. c #ACACAC",
"/. c gray68",
"(. c #AEAEAE",
"). c #AFAFAF",
"_. c gray69",
"`. c #B1B1B1",
"'. c #B2B2B2",
"]. c gray70",
"[. c #B4B4B4",
"{. c gray71",
"}. c #B6B6B6",
"|. c #B7B7B7",
" X c gray72",
".X c #B9B9B9",
"XX c gray73",
"oX c #BBBBBB",
"OX c #BCBCBC",
"+X c gray74",
"@X c gray",
"#X c gray75",
"$X c #C0C0C0",
"%X c #C1C1C1",
"&X c gray76",
"*X c #C3C3C3",
"=X c gray77",
"-X c #C5C5C5",
";X c #C6C6C6",
":X c gray78",
">X c #C8C8C8",
",X c gray79",
"<X c #CACACA",
"1X c #CBCBCB",
"2X c gray80",
"3X c #CDCDCD",
"4X c #CECECE",
"5X c gray81",
"6X c #D0D0D0",
"7X c gray82",
"8X c #D2D2D2",
"9X c LightGray",
"0X c gray83",
"qX c #D5D5D5",
"wX c gray84",
"eX c #D7D7D7",
"rX c #D8D8D8",
"tX c gray85",
"yX c #DADADA",
"uX c gray86",
"iX c gainsboro",
"pX c #DDDDDD",
"aX c gray87",
"sX c #DFDFDF",
"dX c gray88",
"fX c #E1E1E1",
"gX c #E2E2E2",
"hX c gray89",
"jX c #E4E4E4",
"kX c gray90",
"lX c #E6E6E6",
"zX c #E7E7E7",
"xX c gray91",
"cX c #E9E9E9",
"vX c #EAEAEA",
"bX c gray92",
"nX c #ECECEC",
"mX c gray93",
"MX c #EEEEEE",
"NX c #EFEFEF",
"BX c gray94",
"VX c #F1F1F1",
"CX c gray95",
"ZX c #F3F3F3",
"AX c #F4F4F4",
"SX c gray96",
"DX c #F6F6F6",
"FX c gray97",
"GX c #F8F8F8",
"HX c #F9F9F9",
"JX c gray98",
"KX c #FBFBFB",
"LX c gray99",
"PX c #FDFDFD",
"IX c #FEFEFE",
"UX c white",
/* pixels */
"G G G G G G G S n c v m m m m m N F G G G F M c c c c c c c c c c c c c n m A G G G G G G G G G G G ",
"G G G G G D C N v c c v b b b v n V V V V V b c l 6 1 1 1 1 1 1 1 1 1 2 d b N D G G G G G G G G G G ",
"G G G G G S m n d 1 < < < < < < 6 x v v v v l 4 2 i d s s s s s s s s s 7 < a N V S G G G G G G G G ",
"G G G G G S m m u               $ k c c c c j + O N J H H H H H H H H H 3   w n m A G G G G G G G G ",
"V V V V V N b f 7 a s s s s s s u 2 < 5 x n x y y m C V V C D G G G G G z a 8 s b N S G G G G S C C ",
"b b b b b v c h a C Z Z Z A H H A a y r x b v b n b b b b b B F G G G G H H z j c b B C C C C M v b ",
"c c c c c c c v m m m m m N F G G H G M c c c c c c c c c c n D G G G G G G H N c b m m m m m b c c ",
"4 4 4 4 t v c v b b b b b n V Z D Z V b c l 8 4 4 4 4 6 h c b B C D G G G G G M c v b b b b b v p 4 ",
"        < n c c c v v v c v n N S M n v v j @         . a v c n m S G G G G G M c c v v v v v v 8   ",
"t t e 9 i v v v g 5 5 4 q c b n V n z 7 5 6 r t t t t t 7 6 h b b B C C C C C n c t 4 5 5 5 5 4 9 t ",
"H F B n b f 5 4 8 t y y e 0 z v l 7 6 t y p S H H H H F f t 8 h c v b b b b b v c t 5 7 9 w w q l H ",
"G A b c v y     < G H J c * l v d X $ Z H H G G G G G G H D , i v c v v v v v v v v n M A H H H G G ",
"Z B v v d 8 t r g F G G V r 5 0 h 9 e S G G G G G G G G G F f k x w 5 5 5 5 5 5 5 5 s n N D G G G G ",
"b b d 8 9 d G H H G G G H C r q w x b C Z Z Z F G G G G G G G m z - 1 w w w w w w w 9 7 s B Z S G G ",
"v v w   4 G G G G G G G G G H m - k v m m m M F G G G G G G F m z ; k K H H H H H H 0   7 n m Z G G ",
"8 i w   4 G G G G G G G G G G C u z c b b b n C A F G G G G F m x q e i M G G G G G j 0 0 d b N Z Z ",
"  1 w   4 G G G G G G G G G G G D v c v v v v n N I J G G G F m c c :   g H G G G G G H q 6 v b m m ",
"  1 a 2 i G G G G G G G G G G G S v l q 9 q z n M K D F G G F m c c :   g H G G G G G G k s c b n b ",
"  1 v c n Z G G G G G G G G G G S v l w 0 0 9 9 q z n C F G G m x t 5 4 l A D G G G G G S m c a d B ",
"  2 n v c M G G G G G G G G G G S v b F H C $   O f v m D G G m z ; t v n m A G G G G G B c b 5 0 H ",
"  1 g 9 u M G G G G G G G G G G D v b F G A q X o g v b C A A m x - t b b n Z G G G G G B s w 8 g G ",
"2 e s 6 t m G G G G G G G G G F C v b F G G A w 7 q r l b n b i w 8 0 e h c C G G G G G B i 6 j G G ",
"m b N G Z M G G G G G G G G G D m c b F G G G G C % X d v c c -   l 2   r v C G G G G G B V G G G G ",
"n v N G Z n A A S G G G G G G D n c b F G G G G A q 6 j c x i 7 6 n i 5 d c C G G G D A M N A D G G ",
"c c N G Z v m m B G G G G G G D v c b F G G G G G G F n v x - j H G G G M c Z G G G C m b b m C H H ",
"c g j G S M m n N A A A A A A C b M B F G G G G G G F b i r 7 n H G G G M c B F G D N b b M V S M g ",
"v s s G H M r e p b n n n n n b n F G G G G G G G S Z c * X x H G G G G M c b V A N b v n V A F u   ",
"c M G G H j     ; c v c c c c c b F G G G G G G F N m z & X x H G G G G M c c n m v b m m m m A u   ",
"c N G G H b 4 3 6 e i x v M M M B F G G G G G S A m n x & . x H G G G G M c v b n m m n n n n V f , ",
"c m S G G G F G b 2 9 x n S G G G G G S S S A m n v x i 4 2 m H G G D S m c d j c B l y u u y h n b ",
"v c N G G G G G G F Z c v N F G G G F M m m m v c v l = x G G G G G V m v c < e b v 4         7 v c ",
"u d N G G G G G G G A c c m A S S S A m m m n v x p t 5 M H D S S S N m b v w 0 u j r , < < , 8 g v ",
"  1 M S D G G G G G S M m b n n n n v i u u i z l 4 1 b S S M n n n d u u u n i 1 p V F D D F f 8 u ",
"  < b m V G G G G G G G S m v v v v g +     + f v b n m m m v v v c :       d G F M V G G G G G y   ",
", 6 g n N S S D G G F S Z c p i i i t 1 , : @ d v n n n n n c d i u 5 , , , z H G N V G G G G H h , ",
"F a 1 v b m m B G G S M m d O       & B F B = d v v v v v v x : . X h F D D F G G N V G G G G G F D ",
"H l 6 i g n n N S S Z m n h < > > : 5 A H Z 6 r i i i i i p k ;   = v H G G G G G N N S S F G G G G ",
"G G j : 5 g c v n m c s f v C Z S D D G G G Z 6 : > > > ; : s 6 : c G G G G G D D M h s s b S D G G ",
"G G F D s , c v v v a o = z v n F G G G G G G S S S S A m v v V S F G G G G G V m b 5 X . 0 b V G G ",
"G G G H k 1 a a a s t ; < s x b S D D G G G G G G G G D M n v A G G G G G G F B n b 3   @ 9 a v F G ",
"G G G G C p , , , > 8 C v 7 v n m m M S D D D D D D S M v c n S G G G G D D B v c h 6 - a a > 0 v S ",
"G G G G Z m A S S A S G F S F S v c v m M M M M M M m v c c A G G G G G V m b c v 2 y D F D S w 5 b ",
"S S S S V m S S F G G G G G G D m c c n n n n n n n n v b n S G G G F D N n v h s 5 f H G F F u 4 d ",
"v v v b v v v b B G G G G G G G S v c c c c c v v c c v A F G G G G V M b c c 1 . p F G G Z M b 8 X ",
"d d d d s h c v N D D D F G G G S b v c c c c f d x c v Z D D D D D N n v c h 3 * h H G F V m z 9 * ",
"- - - - - 4 f j v m m m N D D S M n n c c x f < : p g x n m m m m m b c j f 6 g A D F D C z g 9 y A ",
"C C C C Z f O , x v v c v M M m v c c c c j : x M = # f v c c c c c c c 1 o a F G G C M n 7 o e S G ",
"G G G G H z % < f g h x v n n n c b b b v k < N A , * h v c c b b b b b 5 $ h H G F V n z 6 # i H G ",
"G G G G F A C l > ; 5 c n n n n m S F S b v V F F C C S M b v V A D D D Z V S G G C n n r p C S G G ",
"G G G G A N G D V B C D D D D D F G G D b v D G G G G G F D n v b S G G G H G G G N B F Z S H G G G "
};
